<svg width="58" height="57" viewBox="0 0 58 57" fill="none" xmlns="http://www.w3.org/2000/svg">
<path fill-rule="evenodd" clip-rule="evenodd" d="M31.7667 56.5735C46.1201 55.1753 57.338 43.0747 57.338 28.3542C57.338 12.6946 44.6434 0 28.9838 0C13.3242 0 0.629639 12.6946 0.629639 28.3542C0.629639 42.3635 10.7896 53.9998 24.1432 56.2968V32.8261H18.7762V26.7772H24.1432V23.3804C24.1432 19.8838 25.1596 17.1393 27.1926 15.1471C29.2255 13.1141 32.0919 12.0977 35.7919 12.0977C38.7193 12.0977 41.0165 12.6872 42.6835 13.8663L40.5489 19.5992C39.2479 18.7047 37.8451 18.2574 36.3408 18.2574C33.1287 18.2574 31.5227 20.0058 31.5227 23.5024V26.7772H40.4879V32.8261H31.7667V56.5735Z" fill="#F5F5F5"/>
</svg>
