<svg width="58" height="57" viewBox="0 0 58 57" fill="none" xmlns="http://www.w3.org/2000/svg">
<path fill-rule="evenodd" clip-rule="evenodd" d="M29.169 56.7083C44.8285 56.7083 57.5231 44.0137 57.5231 28.3542C57.5231 12.6946 44.8285 0 29.169 0C13.5094 0 0.814819 12.6946 0.814819 28.3542C0.814819 44.0137 13.5094 56.7083 29.169 56.7083ZM18.92 12.8538C16.0198 12.8538 13.6687 15.2049 13.6687 18.1051V38.603C13.6687 41.5032 16.0198 43.8543 18.92 43.8543H39.4179C42.3181 43.8543 44.6692 41.5032 44.6692 38.603V18.1051C44.6692 15.2049 42.3181 12.8538 39.4179 12.8538H18.92ZM28.8389 37.2584C33.5745 37.2584 37.4135 33.4195 37.4135 28.6838C37.4135 23.9482 33.5745 20.1092 28.8389 20.1092C24.1033 20.1092 20.2643 23.9482 20.2643 28.6838C20.2643 33.4195 24.1033 37.2584 28.8389 37.2584ZM38.8729 18.6587C38.8729 19.6215 38.0924 20.402 37.1296 20.402C36.1668 20.402 35.3862 19.6215 35.3862 18.6587C35.3862 17.6959 36.1668 16.9154 37.1296 16.9154C38.0924 16.9154 38.8729 17.6959 38.8729 18.6587Z" fill="#F5F5F5"/>
</svg>
