<svg width="57" height="58" viewBox="0 0 57 58" fill="none" xmlns="http://www.w3.org/2000/svg">
<path fill-rule="evenodd" clip-rule="evenodd" d="M28.3542 57.0443C44.0137 57.0443 56.7083 44.3497 56.7083 28.6901C56.7083 13.0305 44.0137 0.335938 28.3542 0.335938C12.6946 0.335938 0 13.0305 0 28.6901C0 44.3497 12.6946 57.0443 28.3542 57.0443ZM16.7573 18.2975H11.0571C11.0158 20.1636 11.3145 22.6788 11.8006 24.7478C12.098 26.0135 12.6681 27.6281 12.9159 28.2772C13.1637 28.9263 13.7427 30.436 14.5268 31.6849C15.2686 32.8664 15.7349 33.5257 16.7573 34.4841C17.787 35.4491 18.4998 35.974 19.7313 36.6747C20.6164 37.1783 21.0431 37.3553 21.8093 37.6731C21.9673 37.7387 22.1397 37.8102 22.3336 37.8918C23.1053 38.2166 23.7704 38.3745 24.5261 38.5539C24.6199 38.5761 24.715 38.5987 24.8119 38.622C25.633 38.8192 26.1266 38.8732 26.8971 38.9575C26.9831 38.9669 27.0726 38.9767 27.1664 38.9871C28.2724 39.1099 30.0165 38.9871 30.0165 38.9871V31.6849C31.0904 31.7254 33.6596 32.2204 35.3449 33.8755C37.0302 35.5307 38.3602 37.9729 38.8146 38.9871H44.7626C44.2669 37.4455 43.2116 34.8815 41.4168 32.7802C40.2055 31.362 38.4428 30.0622 37.8232 29.6159C37.2037 29.1697 36.0884 28.6423 36.0884 28.6423C36.0884 28.6423 37.1752 27.9386 37.8232 27.4253C38.6494 26.7709 39.0948 26.3735 39.8059 25.5997C40.4998 24.8446 40.859 24.3877 41.4168 23.5307C41.9765 22.6709 42.2593 22.1615 42.656 21.2184C43.118 20.1202 43.5234 18.2975 43.5234 18.2975H38.195C38.1017 18.5223 38.0071 18.7731 37.9056 19.0424C37.5125 20.0848 37.0152 21.4032 36.0884 22.5571C35.304 23.5337 34.271 24.3421 33.734 24.7478C33.7018 24.7721 33.669 24.797 33.6354 24.8224C33.108 25.2224 32.4027 25.7572 31.5035 26.0865C30.9426 26.2919 30.0165 26.4516 30.0165 26.4516V18.2975H24.5641V32.5368C23.0358 31.9689 20.0117 30.0367 18.74 27.4253C17.537 24.9548 17.267 23.6852 17.1634 23.1979C17.1496 23.133 17.1388 23.082 17.1291 23.0439C16.7573 21.4618 16.7573 18.2975 16.7573 18.2975Z" fill="#F5F5F5"/>
</svg>
